<?xml version="1.0" encoding="UTF-8"?>
<svg id="_レイヤー_2" data-name="レイヤー_2" xmlns="http://www.w3.org/2000/svg" viewBox="0 0 245.96 193.27">
  <defs>
    <style>
      .cls-1 {
        fill: #34bde7;
      }

      .cls-2 {
        fill: #40ace0;
      }

      .cls-3 {
        fill: #231815;
      }

      .cls-4 {
        fill: #286db6;
      }
    </style>
  </defs>
  <g id="_レイヤー_1-2" data-name="レイヤー_1">
    <g>
      <g>
        <path class="cls-3" d="M12.33,181.02l7.28-14.26h5.04v26.17h-5.08v-16.23l-5.69,11.53h-3.22l-5.61-11.42v16.12H0v-26.17h4.97l7.36,14.26Z"/>
        <path class="cls-3" d="M39.03,193.27c-5.88,0-10.01-3.57-10.01-11.57v-3.72c0-8.08,4.13-11.57,10.01-11.57s10.05,3.49,10.05,11.57v3.72c0,8-4.13,11.57-10.05,11.57ZM34.32,181.71c0,5.01,1.63,7.09,4.7,7.09s4.74-2.09,4.74-7.09v-3.72c0-5.01-1.67-7.09-4.74-7.09s-4.7,2.09-4.7,7.09v3.72Z"/>
        <path class="cls-3" d="M73.12,166.76v26.17h-4.44l-10.2-16.19v16.19h-5.04v-26.17h4.4l10.24,16.42v-16.42h5.04Z"/>
        <path class="cls-3" d="M94.63,166.76v4.51h-11v5.88h9.86v4.48h-9.86v6.83h11v4.48h-16.31v-26.17h16.31Z"/>
        <path class="cls-3" d="M102.1,166.76l4.66,9.75,4.7-9.75h6.11l-8.15,15.47v10.69h-5.31v-10.69l-8.15-15.47h6.14Z"/>
        <path class="cls-3" d="M145.25,192.79l-5.4-10.92h-6.11v10.92h-3.23v-25.88h8.25c5.96,0,9.42,2.48,9.42,7.5,0,3.64-1.8,5.93-5.1,6.9l5.78,11.48h-3.6ZM138.76,178.95c4.39,0,6.19-1.35,6.19-4.54s-1.8-4.58-6.19-4.58h-5.03v9.12h5.03Z"/>
        <path class="cls-3" d="M168.77,166.9v2.93h-12.38v8.1h11.25v2.93h-11.25v9h12.38v2.93h-15.6v-25.88h15.6Z"/>
        <path class="cls-3" d="M176.68,182.92v9.87h-3.23v-25.88h8.25c5.96,0,9.42,3,9.42,8.03s-3.41,7.99-9.42,7.99h-5.03ZM181.71,180c4.39,0,6.19-1.88,6.19-5.06s-1.8-5.1-6.19-5.1h-5.03v10.17h5.03Z"/>
        <path class="cls-3" d="M192.7,192.79l9-25.88h3l9,25.88h-3.41l-1.99-5.93h-10.2l-1.99,5.93h-3.41ZM199.11,183.93h8.18l-4.09-12.15-4.09,12.15Z"/>
        <path class="cls-3" d="M220.86,192.79h-3.23v-25.88h3.23v25.88Z"/>
        <path class="cls-3" d="M242.36,192.79l-5.4-10.92h-6.11v10.92h-3.23v-25.88h8.25c5.96,0,9.42,2.48,9.42,7.5,0,3.64-1.8,5.93-5.1,6.9l5.78,11.48h-3.6ZM235.87,178.95c4.39,0,6.19-1.35,6.19-4.54s-1.8-4.58-6.19-4.58h-5.03v9.12h5.03Z"/>
      </g>
      <g>
        <path class="cls-1" d="M162.94,114c0-8.35,0-16.06,0-23.76,0-7.22.09-14.44.07-21.65-.01-5.47-1.82-8.17-6.24-10.62-12.28-6.8-24.22-14.23-36.59-20.87-5.29-3.03-7.35-3.03-7.13-9.12.29-8.27.54-18.91.54-27.97,3.09,1.66,3.35,1.78,4.85,2.64,17.16,9.81,34.72,19.49,51.96,29.16,4.08,2.29,5.72,5.11,5.68,9.74-.17,18.5-.07,37.01-.07,55.52,0,11.55.97,8.13-13.08,16.94Z"/>
        <path class="cls-2" d="M139.81,127.82c0-9.66.19-18.17.12-26.48-.05-5.98-1.74-9.41-7.01-12.26-12.81-6.94-25.21-14.61-37.92-21.74-3.15-1.77-4.42-3.75-4.29-7.39.27-7.56.47-14.26.49-21.83,0-1.57.13-4.37.13-7.21,2.42,1.38,3.5,2.29,4.86,3.07,17.45,9.99,34.82,20.1,52.34,29.96,3.72,2.09,5.11,4.75,5.15,8.88.12,13.07.05,25.78.1,38.79.04,9.61.66,7.84-7.24,12.56-1.71,1.02-3.53,1.89-6.74,3.64Z"/>
        <path class="cls-4" d="M69.95,63.62c14.87,8.5,28.15,16.08,41.42,23.66,5.61,3.2,11.31,6.26,16.78,9.69,1.71,1.07,3.92,3.08,3.98,4.74.37,10.06.18,20.15.18,31.18-2.35-1.12-3.82-1.7-5.18-2.48-17.59-10.14-35.12-20.39-52.79-30.39-3.35-1.9-4.59-4.09-4.48-7.89.25-8.96.08-17.93.08-28.51Z"/>
      </g>
    </g>
  </g>
</svg>