<svg width="225" height="31" viewBox="0 0 225 31" fill="none" xmlns="http://www.w3.org/2000/svg">
<path d="M0.0200001 2.96H19.82C19.34 11.28 16.5 15.44 10.5 19.88L14.82 28.76L10.9 30.64L3.26 14.84L7.18 12.96L8.58 15.92C12.1 13.28 13.9 10.8 14.82 7.28H0.0200001V2.96ZM42.4709 20.56V30.64H38.1509V20.76C36.2309 22 33.9509 23.08 31.1909 23.96L29.8709 19.84C37.7509 17.12 41.1509 12.56 43.1109 7.28H32.9909V2.96H38.1509V0.8H42.4709V2.96H47.6709V7.28C46.7509 10.32 45.5109 13.32 43.4309 16L50.8309 20.84L48.4309 24.44L42.4709 20.56ZM63.2019 18.08V13.72H79.8419V18.08H63.2019ZM95.2128 2.96H99.5728V16.64H95.2128V2.96ZM100.933 30.64L99.0928 26.72C105.813 23.04 105.933 17.36 105.933 2.96H110.253C110.253 19.32 109.373 26.04 100.933 30.64ZM144.824 6.56C144.784 8.4 143.224 9.88 141.384 9.8C139.504 9.72 138.104 8.16 138.144 6.32C138.184 4.44 139.744 3 141.624 3.08C143.464 3.16 144.864 4.72 144.824 6.56ZM123.864 17.28L120.824 14.2L130.624 4.56L147.664 22.68L144.504 25.64L130.504 10.76L123.864 17.28ZM140.184 6.4C140.144 7.12 140.704 7.68 141.424 7.72C142.144 7.76 142.744 7.2 142.784 6.48C142.824 5.76 142.264 5.12 141.544 5.12C140.824 5.12 140.224 5.68 140.184 6.4ZM171.555 7.28H155.475V2.96H176.035C176.035 9.44 175.835 12.04 170.035 16.28L167.475 12.8C170.235 10.64 171.195 9.44 171.555 7.28ZM161.795 30.64L158.835 27.44C162.875 24.52 162.595 22.12 162.595 18.84V10.52H166.915V18.84C166.915 24.28 166.275 27.2 161.795 30.64ZM199.426 16.34C198.806 16.7 198.166 17.06 197.426 17.42C196.186 18.04 193.686 19.22 191.846 20.4C190.186 21.48 189.066 22.64 189.066 24.02C189.066 25.46 190.466 26.24 193.246 26.24C195.286 26.24 197.986 25.92 199.766 25.5L199.746 28.38C198.026 28.66 195.926 28.88 193.326 28.88C189.326 28.88 186.306 27.76 186.306 24.32C186.306 21.78 188.166 20 190.546 18.44C192.446 17.18 194.966 15.94 196.186 15.24C196.946 14.8 197.506 14.46 198.026 14.04L199.426 16.34ZM189.366 12.06C190.326 14.72 191.586 17.12 192.526 18.8L190.246 20.12C189.146 18.3 187.946 15.68 186.846 13.1L189.366 12.06ZM212.566 15.72C213.726 15.84 214.866 15.9 216.086 15.9C218.526 15.9 221.026 15.7 223.106 15.26V17.74C221.006 18.06 218.486 18.22 216.086 18.24C214.906 18.24 213.766 18.2 212.586 18.12L212.566 15.72ZM220.186 12.36C220.126 12.74 220.086 13.22 220.066 13.64C220.026 14.3 219.986 15.68 219.986 17.12C219.986 20.8 220.306 23.4 220.306 25.3C220.306 27.4 219.266 28.92 216.386 28.92C213.606 28.92 211.886 27.78 211.886 25.68C211.886 23.64 213.606 22.24 216.346 22.24C220.106 22.24 222.526 24.12 224.086 25.56L222.726 27.66C220.426 25.52 218.406 24.18 216.146 24.18C215.006 24.18 214.226 24.64 214.226 25.4C214.226 26.22 215.026 26.58 216.106 26.58C217.326 26.58 217.746 25.94 217.746 24.76C217.746 23.38 217.486 20.02 217.486 17.14C217.486 15.62 217.466 14.28 217.446 13.68C217.446 13.36 217.386 12.74 217.326 12.36H220.186ZM210.426 12.56C210.266 12.96 210.026 14 209.946 14.36C209.646 15.7 208.986 20.1 208.986 22.1C208.986 22.48 209.006 23 209.066 23.4C209.346 22.7 209.686 22.02 209.966 21.34L211.206 22.32C210.646 23.98 209.986 26 209.766 27.1C209.706 27.38 209.646 27.82 209.666 28.02C209.666 28.24 209.666 28.58 209.686 28.86L207.426 29.02C207.026 27.64 206.626 25.34 206.626 22.64C206.626 19.62 207.226 15.84 207.466 14.3C207.546 13.74 207.626 12.96 207.646 12.34L210.426 12.56Z" fill="#202933"/>
</svg>
